<?xml version="1.0" standalone="no"?>
<!DOCTYPE svg PUBLIC "-//W3C//DTD SVG 20010904//EN"
 "http://www.w3.org/TR/2001/REC-SVG-20010904/DTD/svg10.dtd">
<svg version="1.0" xmlns="http://www.w3.org/2000/svg"
 width="143.000000pt" height="143.000000pt" viewBox="0 0 143.000000 143.000000"
 preserveAspectRatio="xMidYMid meet">
<metadata>
Created by potrace 1.14, written by Peter Selinger 2001-2017
</metadata>
<g transform="translate(0.000000,143.000000) scale(0.100000,-0.100000)"
fill="#000000" stroke="none">
<path d="M105 1422 c-32 -7 -65 -33 -82 -66 -15 -28 -17 -97 -17 -636 0 -665
-1 -644 61 -686 27 -18 57 -19 613 -21 322 -1 603 0 625 3 43 5 84 33 104 72
10 18 13 167 13 632 0 675 3 645 -66 686 -29 18 -62 19 -631 19 -330 1 -609
-1 -620 -3z"/>
</g>
</svg>
