<?xml version="1.0" encoding="utf-8"?>
<!-- Generator: Adobe Illustrator 15.1.0, SVG Export Plug-In . SVG Version: 6.00 Build 0)  -->
<!DOCTYPE svg PUBLIC "-//W3C//DTD SVG 1.1//EN" "http://www.w3.org/Graphics/SVG/1.1/DTD/svg11.dtd">
<svg version="1.1" xmlns="http://www.w3.org/2000/svg" xmlns:xlink="http://www.w3.org/1999/xlink" x="0px" y="0px" width="240px"
	 height="240px" viewBox="0 0 240 240" enable-background="new 0 0 240 240" xml:space="preserve">
<g id="レイヤー_1" display="none">
	<g display="inline">
		<defs>
			<rect id="SVGID_1_" x="-120" y="-392" width="1280" height="1024"/>
		</defs>
		<clipPath id="SVGID_2_">
			<use xlink:href="#SVGID_1_"  overflow="visible"/>
		</clipPath>
		<path clip-path="url(#SVGID_2_)" fill="#FFFFFF" d="M593.771,211.138H446.036c-6.6,0-12-5.4-12-12V40.194c0-6.6,5.4-12,12-12
			h147.736c6.601,0,12,5.4,12,12v158.944C605.771,205.737,600.372,211.138,593.771,211.138"/>
		<path clip-path="url(#SVGID_2_)" fill="none" stroke="#00026F" stroke-width="6" stroke-miterlimit="10" d="M593.771,211.138
			H446.036c-6.6,0-12-5.4-12-12V40.194c0-6.6,5.4-12,12-12h147.736c6.601,0,12,5.4,12,12v158.944
			C605.771,205.737,600.372,211.138,593.771,211.138z"/>
		<path clip-path="url(#SVGID_2_)" fill="#003827" d="M571.459,77.752c4.469,0,6.93-1.05,6.93-2.939c0-1.92-2.461-2.97-6.93-2.97
			c-4.5,0-6.961,1.05-6.961,2.97C564.498,76.702,566.959,77.752,571.459,77.752"/>
		<path clip-path="url(#SVGID_2_)" fill="#03004E" d="M448.756,38.49v60.132c6.947-7.605,17.377-11.94,30.23-11.94
			c3.75,0,6.6,0.299,10.05,1.2V49.333h23.099v110.245c-11.849,2.25-20.549,3.15-29.999,3.15c-15.014,0-26.2-3.616-33.38-10.688
			v28.182h52.74c10.193-4.798,15.141-8.997,18.29-15.444c3.3-6.6,4.35-14.25,4.35-34.349V84.831h23.099v53.548
			c0,18.449-1.35,27.299-5.398,34.949c-1.321,2.589-2.798,4.838-4.594,6.895h53.246V38.49H448.756z M547.234,72.981h-23.1V49.283
			h23.1V72.981z"/>
		<path clip-path="url(#SVGID_2_)" fill="none" stroke="#0022B9" stroke-miterlimit="10" d="M448.756,38.49v60.132
			c6.947-7.605,17.377-11.94,30.23-11.94c3.75,0,6.6,0.299,10.05,1.2V49.333h23.099v110.245c-11.849,2.25-20.549,3.15-29.999,3.15
			c-15.014,0-26.2-3.616-33.38-10.688v28.182h52.74c10.193-4.798,15.141-8.997,18.29-15.444c3.3-6.6,4.35-14.25,4.35-34.349V84.831
			h23.099v53.548c0,18.449-1.35,27.299-5.398,34.949c-1.321,2.589-2.798,4.838-4.594,6.895h53.246V38.49H448.756z M547.234,72.981
			h-23.1V49.283h23.1V72.981z"/>
		<path clip-path="url(#SVGID_2_)" fill="#030054" d="M489.036,143.529V106.48c-2.7-0.899-4.95-1.2-7.8-1.2
			c-11.849,0-18.599,7.2-18.599,19.8c0,12.299,6.45,19.049,18.449,19.049C483.636,144.129,485.736,143.979,489.036,143.529"/>
		<path clip-path="url(#SVGID_2_)" fill="#00026F" d="M454.686,180.749h2.926v13.963c-1.501,0.285-2.603,0.399-3.8,0.399
			c-3.571,0-5.433-1.615-5.433-4.711c0-2.983,1.976-4.921,5.034-4.921c0.475,0,0.836,0.038,1.273,0.151V180.749z M454.686,187.987
			c-0.342-0.114-0.627-0.152-0.988-0.152c-1.501,0-2.355,0.912-2.355,2.508c0,1.558,0.817,2.413,2.336,2.413
			c0.323,0,0.589-0.02,1.007-0.076V187.987z"/>
		<path clip-path="url(#SVGID_2_)" fill="#00026F" d="M462.248,185.688v6.783c0,2.336-0.171,3.457-0.685,4.426
			c-0.474,0.932-1.101,1.52-2.393,2.166l-2.717-1.291c1.292-0.609,1.919-1.141,2.318-1.957c0.418-0.836,0.551-1.805,0.551-4.352
			v-5.775H462.248z M459.322,181.186h2.926v3.003h-2.926V181.186z"/>
		<path clip-path="url(#SVGID_2_)" fill="#00026F" d="M464.053,186.354c1.291-0.607,2.526-0.874,3.875-0.874
			c1.501,0,2.489,0.399,2.926,1.178c0.247,0.437,0.322,1.007,0.322,2.223v5.946c-1.31,0.189-2.963,0.322-4.179,0.322
			c-2.45,0-3.553-0.854-3.553-2.754c0-2.052,1.463-3.002,5.054-3.306v-0.646c0-0.532-0.266-0.723-1.007-0.723
			c-1.083,0-2.298,0.305-3.438,0.893V186.354z M468.631,191.008c-1.938,0.189-2.564,0.494-2.564,1.254
			c0,0.57,0.36,0.836,1.158,0.836c0.437,0,0.836-0.038,1.406-0.133V191.008z"/>
		<path clip-path="url(#SVGID_2_)" fill="#00026F" d="M472.603,186.145c1.729-0.456,3.153-0.665,4.597-0.665
			c1.501,0,2.584,0.342,3.23,1.007c0.608,0.627,0.798,1.311,0.798,2.773v5.737h-2.926v-5.624c0-1.12-0.38-1.538-1.425-1.538
			c-0.399,0-0.759,0.038-1.349,0.209v6.953h-2.925V186.145z"/>
		<path clip-path="url(#SVGID_2_)" fill="#00026F" d="M482.274,196.593c1.026,0.532,2.052,0.778,3.134,0.778
			c1.919,0,2.736-0.778,2.736-2.641v-0.057c-0.57,0.285-1.14,0.399-1.9,0.399c-2.564,0-4.198-1.69-4.198-4.37
			c0-3.324,2.413-5.205,6.687-5.205c1.254,0,2.413,0.133,3.818,0.418v2.299c-0.778-0.152-1.064-0.209-1.652-0.266v0.304l0.038,1.235
			l0.019,1.596c0.019,0.398,0.019,0.797,0.038,1.196v0.798c0,2.508-0.209,3.686-0.836,4.654c-0.912,1.425-2.489,2.128-4.731,2.128
			c-1.139,0-2.127-0.171-3.153-0.569V196.593z M488.087,187.854h-0.095h-0.209c-0.589-0.019-1.235,0.134-1.71,0.418
			c-0.702,0.399-1.064,1.121-1.064,2.147c0,1.462,0.742,2.298,2.033,2.298c0.38,0,0.722-0.075,1.102-0.189v-0.209v-0.798
			c0-0.342-0.019-0.722-0.019-1.12l-0.019-1.35l-0.019-0.969V187.854z"/>
		<path clip-path="url(#SVGID_2_)" fill="#00026F" d="M497.359,185.441c2.925,0,4.711,1.844,4.711,4.825
			c0,3.06-1.862,4.978-4.825,4.978c-2.926,0-4.731-1.843-4.731-4.807C492.514,187.36,494.376,185.441,497.359,185.441
			 M497.302,192.889c1.14,0,1.805-0.932,1.805-2.546c0-1.596-0.646-2.546-1.786-2.546c-1.178,0-1.843,0.932-1.843,2.546
			S496.143,192.889,497.302,192.889"/>
		<path clip-path="url(#SVGID_2_)" fill="#00026F" d="M510.43,188.387c-0.665-0.399-1.254-0.57-2.033-0.57
			c-1.71,0-2.849,0.931-2.849,2.394c0,1.52,1.12,2.488,2.849,2.488c0.798,0,1.368-0.151,2.128-0.551v2.374
			c-0.95,0.476-1.729,0.666-2.869,0.666c-3.115,0-5.072-1.824-5.072-4.73c0-2.982,2.147-4.996,5.3-4.996
			c0.95,0,1.634,0.151,2.546,0.551V188.387z"/>
		<path clip-path="url(#SVGID_2_)" fill="#00026F" d="M515.94,185.441c2.925,0,4.711,1.844,4.711,4.825
			c0,3.06-1.862,4.978-4.825,4.978c-2.926,0-4.731-1.843-4.731-4.807C511.095,187.36,512.957,185.441,515.94,185.441
			 M515.883,192.889c1.14,0,1.805-0.932,1.805-2.546c0-1.596-0.646-2.546-1.786-2.546c-1.178,0-1.843,0.932-1.843,2.546
			S514.724,192.889,515.883,192.889"/>
		<path clip-path="url(#SVGID_2_)" fill="#00026F" d="M522.078,186.145c1.729-0.456,3.152-0.665,4.597-0.665
			c1.501,0,2.583,0.342,3.229,1.007c0.607,0.627,0.798,1.311,0.798,2.773v5.737h-2.925v-5.624c0-1.12-0.381-1.538-1.426-1.538
			c-0.398,0-0.76,0.038-1.349,0.209v6.953h-2.925V186.145z"/>
		<path clip-path="url(#SVGID_2_)" fill="#00026F" d="M532.128,196.593c1.026,0.532,2.052,0.778,3.134,0.778
			c1.92,0,2.736-0.778,2.736-2.641v-0.057c-0.57,0.285-1.14,0.399-1.9,0.399c-2.564,0-4.197-1.69-4.197-4.37
			c0-3.324,2.412-5.205,6.688-5.205c1.253,0,2.412,0.133,3.817,0.418v2.299c-0.778-0.152-1.063-0.209-1.653-0.266v0.304l0.039,1.235
			l0.019,1.596c0.019,0.398,0.019,0.797,0.038,1.196v0.798c0,2.508-0.209,3.686-0.836,4.654c-0.912,1.425-2.488,2.128-4.73,2.128
			c-1.14,0-2.127-0.171-3.153-0.569V196.593z M537.941,187.854h-0.096h-0.209c-0.588-0.019-1.234,0.134-1.709,0.418
			c-0.703,0.399-1.064,1.121-1.064,2.147c0,1.462,0.741,2.298,2.033,2.298c0.379,0,0.722-0.075,1.102-0.189v-0.209v-0.798
			c0-0.342-0.02-0.722-0.02-1.12l-0.019-1.35l-0.019-0.969V187.854z"/>
		<path clip-path="url(#SVGID_2_)" fill="#00026F" d="M543.224,186.373c1.48-0.59,3.021-0.895,4.445-0.895
			c0.817,0,1.387,0.096,2.052,0.305v2.488c-0.532-0.209-1.083-0.303-1.729-0.303c-0.665,0-1.235,0.094-1.844,0.303v6.726h-2.925
			V186.373z"/>
		<path clip-path="url(#SVGID_2_)" fill="#00026F" d="M553.008,191.179c0.096,1.159,0.988,1.786,2.527,1.786
			c1.158,0,2.223-0.305,3.115-0.894v2.261c-1.121,0.589-2.279,0.875-3.533,0.875c-3.115,0-4.939-1.787-4.939-4.826
			c0-2.982,1.861-4.92,4.692-4.92c2.717,0,4.274,1.729,4.274,4.768c0,0.152,0,0.418-0.02,0.741l-0.019,0.209H553.008z
			 M556.466,189.146c-0.095-1.064-0.646-1.635-1.596-1.635c-0.987,0-1.672,0.627-1.823,1.635H556.466z"/>
		<path clip-path="url(#SVGID_2_)" fill="#00026F" d="M560.342,192.224c1.045,0.513,1.862,0.741,2.832,0.741
			c0.778,0,1.196-0.209,1.196-0.59c0-0.246-0.152-0.437-0.476-0.569l-1.178-0.552c-1.805-0.835-2.375-1.52-2.375-2.849
			c0-1.823,1.482-2.944,3.914-2.944c0.932,0,1.71,0.151,2.621,0.531v2.318c-0.873-0.418-1.576-0.608-2.412-0.608
			c-0.816,0-1.273,0.228-1.273,0.626c0,0.134,0.058,0.268,0.152,0.361c0.076,0.076,0.19,0.152,0.323,0.209
			c0.285,0.133,0.665,0.324,1.159,0.551c1.823,0.836,2.394,1.521,2.394,2.793c0,1.957-1.349,2.964-3.952,2.964
			c-1.102,0-1.994-0.171-2.926-0.569V192.224z"/>
		<path clip-path="url(#SVGID_2_)" fill="#00026F" d="M568.303,192.224c1.045,0.513,1.862,0.741,2.832,0.741
			c0.778,0,1.196-0.209,1.196-0.59c0-0.246-0.152-0.437-0.476-0.569l-1.178-0.552c-1.805-0.835-2.375-1.52-2.375-2.849
			c0-1.823,1.482-2.944,3.914-2.944c0.932,0,1.71,0.151,2.621,0.531v2.318c-0.873-0.418-1.576-0.608-2.412-0.608
			c-0.816,0-1.273,0.228-1.273,0.626c0,0.134,0.058,0.268,0.152,0.361c0.076,0.076,0.189,0.152,0.323,0.209
			c0.285,0.133,0.665,0.324,1.159,0.551c1.823,0.836,2.394,1.521,2.394,2.793c0,1.957-1.349,2.964-3.952,2.964
			c-1.102,0-1.994-0.171-2.926-0.569V192.224z"/>
		<rect x="576.236" y="192.477" clip-path="url(#SVGID_2_)" fill="#00026F" width="2.301" height="2.38"/>
		<path clip-path="url(#SVGID_2_)" fill="#00026F" d="M582.359,188.484v4.642c0,1.599-0.117,2.366-0.468,3.028
			c-0.325,0.638-0.755,1.041-1.638,1.482l-1.859-0.884c0.884-0.416,1.312-0.78,1.586-1.339c0.286-0.572,0.377-1.234,0.377-2.977
			v-3.953H582.359z M580.357,185.404h2.002v2.053h-2.002V185.404z"/>
		<path clip-path="url(#SVGID_2_)" fill="#00026F" d="M584.049,188.628c0.975-0.195,1.781-0.286,2.639-0.286
			c2.393,0,3.667,1.131,3.667,3.264c0,2.027-1.313,3.314-3.407,3.314c-0.311,0-0.57-0.025-0.896-0.091v3.276h-2.002V188.628z
			 M586.051,193.23c0.273,0.064,0.43,0.078,0.625,0.078c1.053,0,1.65-0.611,1.65-1.703c0-1.08-0.547-1.652-1.586-1.652
			c-0.234,0-0.402,0.014-0.689,0.078V193.23z"/>
		<polygon clip-path="url(#SVGID_2_)" fill="#E50012" points="576.884,122.366 576.884,117.621 579.844,117.621 579.844,130.597 
			576.884,130.597 576.884,125.873 564.854,125.873 564.854,122.366 		"/>
		<path clip-path="url(#SVGID_2_)" fill="#E50012" d="M575.414,134.714c0,3.233-2.037,5.208-5.334,5.208
			c-3.379,0-5.5-2.059-5.5-5.333c0-3.234,2.037-5.229,5.312-5.229C573.293,129.359,575.414,131.418,575.414,134.714 M567.184,134.65
			c0,1.26,1.029,1.995,2.812,1.995c1.765,0,2.814-0.714,2.814-1.974c0-1.302-1.029-2.037-2.814-2.037
			C568.213,132.635,567.184,133.37,567.184,134.65"/>
		<path clip-path="url(#SVGID_2_)" fill="#E50012" d="M580.6,142.19v3.233h-9.847l0.294,0.252c1.302,1.176,2.709,2.31,4.094,3.297
			v3.59l-0.461-0.336c-1.407-1.05-2.835-2.226-4.158-3.422l-0.336,0.23l-1.217,0.84c-1.387,0.966-3.023,2.226-4.115,3.169v-3.883
			c1.154-0.924,2.688-2.016,4.955-3.464l0.44-0.273h-5.396v-3.233H580.6z"/>
		<path clip-path="url(#SVGID_2_)" fill="#E50012" d="M575.141,156.574c-1.596,0.357-3.8,1.008-5.627,1.68l-0.336,0.105
			c-0.041,0.021-0.146,0.062-0.314,0.105l-2.078,0.168l2.1,0.188l0.293,0.126l1.239,0.482c1.05,0.399,3.359,1.135,4.535,1.449
			l0.188,0.042v3.359l-0.524-0.168c-2.96-0.944-5.942-2.101-8.546-3.317l-1.932-0.882c-1.07-0.504-2.437-1.112-3.359-1.491
			c-0.461-0.188-0.734-0.293-1.176-0.482v-3.149c0.547,0.21,0.799,0.336,1.471,0.608c1.176,0.483,1.658,0.715,3.002,1.303
			l0.504,0.252l0.546-0.252c1.911-0.861,4.011-1.68,6.089-2.373c1.281-0.42,2.33-0.734,3.926-1.154V156.574z"/>
		<path clip-path="url(#SVGID_2_)" fill="#E50012" d="M575.414,170.622c0,3.234-2.037,5.208-5.334,5.208
			c-3.379,0-5.5-2.058-5.5-5.333c0-3.233,2.037-5.228,5.312-5.228C573.293,165.27,575.414,167.326,575.414,170.622 M567.184,170.561
			c0,1.26,1.029,1.994,2.812,1.994c1.765,0,2.814-0.714,2.814-1.974c0-1.302-1.029-2.036-2.814-2.036
			C568.213,168.545,567.184,169.279,567.184,170.561"/>
	</g>
	
		<text transform="matrix(-6.123234e-17 1 -1.0638 -6.514079e-17 560.5566 47.002)" display="inline" fill="#FFFFFF" font-family="'DTLProkyonTBold'" font-size="29.14">2019</text>
</g>
<g id="outline">
	<g>
		<path fill="#FFFFFF" d="M214.131,236.169H26.463c-8.383,0-15.243-6.858-15.243-15.244V19.021c0-8.384,6.86-15.244,15.243-15.244
			h187.668c8.385,0,15.245,6.86,15.245,15.244v201.904C229.376,229.311,222.516,236.169,214.131,236.169"/>
		<path fill="#00026F" d="M214.131,239.891H26.463c-10.458,0-18.965-8.508-18.965-18.966V19.021
			c0-10.457,8.508-18.965,18.965-18.965h187.668c10.458,0,18.964,8.508,18.964,18.965v201.904
			C233.096,231.383,224.589,239.891,214.131,239.891z M26.463,7.498c-6.354,0-11.522,5.168-11.522,11.522v201.904
			c0,6.354,5.168,11.522,11.522,11.522h187.668c6.353,0,11.525-5.169,11.525-11.522V19.021c0-6.354-5.172-11.522-11.525-11.522
			H26.463z"/>
		<path fill="#003827" d="M185.789,66.729c5.676,0,8.801-1.332,8.801-3.733c0-2.439-3.125-3.772-8.801-3.772
			c-5.718,0-8.843,1.333-8.843,3.772C176.946,65.397,180.071,66.729,185.789,66.729"/>
		<path fill="#03004E" d="M29.919,16.856v76.386c8.825-9.66,22.074-15.167,38.401-15.167c4.763,0,8.384,0.379,12.767,1.523V30.63
			h29.343v140.043c-15.052,2.86-26.104,4.002-38.108,4.002c-19.071,0-33.281-4.593-42.402-13.577v35.799h66.995
			c12.948-6.094,19.233-11.428,23.234-19.617c4.191-8.386,5.524-18.103,5.524-43.634V75.723h29.343v68.022
			c0,23.436-1.715,34.678-6.858,44.393c-1.68,3.291-3.555,6.148-5.837,8.76h67.641V16.856H29.919z M155.016,60.669h-29.344V30.566
			h29.344V60.669z"/>
		<path fill="none" stroke="#0022B9" stroke-miterlimit="10" d="M29.919,16.856v76.386c8.825-9.66,22.074-15.167,38.401-15.167
			c4.763,0,8.384,0.379,12.767,1.523V30.63h29.343v140.043c-15.052,2.86-26.104,4.002-38.108,4.002
			c-19.071,0-33.281-4.593-42.402-13.577v35.799h66.995c12.948-6.094,19.233-11.428,23.234-19.617
			c4.191-8.386,5.524-18.103,5.524-43.634V75.723h29.343v68.022c0,23.436-1.715,34.678-6.858,44.393
			c-1.68,3.291-3.555,6.148-5.837,8.76h67.641V16.856H29.919z M155.016,60.669h-29.344V30.566h29.344V60.669z"/>
		<path fill="#030054" d="M81.086,150.284v-47.062c-3.43-1.141-6.288-1.523-9.908-1.523c-15.051,0-23.626,9.145-23.626,25.152
			c0,15.622,8.193,24.197,23.436,24.197C74.228,151.049,76.895,150.858,81.086,150.284"/>
		<path fill="#00026F" d="M37.45,197.566h3.718v17.738c-1.907,0.36-3.307,0.508-4.828,0.508c-4.536,0-6.902-2.053-6.902-5.985
			c0-3.791,2.511-6.251,6.396-6.251c0.603,0,1.061,0.048,1.615,0.193V197.566z M37.45,206.761c-0.435-0.144-0.795-0.193-1.254-0.193
			c-1.908,0-2.991,1.16-2.991,3.186c0,1.978,1.038,3.065,2.968,3.065c0.41,0,0.748-0.024,1.278-0.097V206.761z"/>
		<path fill="#00026F" d="M47.059,203.842v8.616c0,2.967-0.217,4.391-0.872,5.62c-0.602,1.186-1.398,1.932-3.04,2.75l-3.452-1.638
			c1.642-0.776,2.438-1.449,2.945-2.486c0.531-1.062,0.699-2.291,0.699-5.526v-7.336H47.059z M43.34,198.123h3.719v3.812H43.34
			V198.123z"/>
		<path fill="#00026F" d="M49.351,204.686c1.64-0.771,3.208-1.109,4.923-1.109c1.907,0,3.161,0.507,3.717,1.495
			c0.313,0.556,0.409,1.28,0.409,2.823v7.557c-1.663,0.238-3.763,0.408-5.309,0.408c-3.112,0-4.513-1.086-4.513-3.501
			c0-2.605,1.858-3.812,6.42-4.197v-0.818c0-0.679-0.338-0.921-1.278-0.921c-1.377,0-2.92,0.388-4.369,1.136V204.686z
			 M55.166,210.599c-2.461,0.241-3.256,0.627-3.256,1.592c0,0.726,0.456,1.062,1.47,1.062c0.556,0,1.063-0.049,1.786-0.168V210.599z
			"/>
		<path fill="#00026F" d="M60.212,204.421c2.196-0.578,4.005-0.845,5.84-0.845c1.907,0,3.282,0.436,4.103,1.281
			c0.773,0.793,1.014,1.664,1.014,3.519v7.289h-3.717v-7.144c0-1.425-0.482-1.954-1.81-1.954c-0.507,0-0.964,0.05-1.713,0.267v8.831
			h-3.716V204.421z"/>
		<path fill="#00026F" d="M72.497,217.693c1.302,0.674,2.606,0.988,3.981,0.988c2.438,0,3.476-0.988,3.476-3.354v-0.071
			c-0.724,0.36-1.448,0.506-2.414,0.506c-3.256,0-5.333-2.147-5.333-5.55c0-4.224,3.066-6.614,8.496-6.614
			c1.592,0,3.065,0.171,4.849,0.531v2.921c-0.987-0.192-1.352-0.266-2.099-0.34v0.386l0.049,1.572l0.024,2.025
			c0.024,0.507,0.024,1.014,0.048,1.521v1.013c0,3.188-0.265,4.683-1.062,5.913c-1.159,1.81-3.161,2.702-6.009,2.702
			c-1.447,0-2.703-0.216-4.005-0.722V217.693z M79.881,206.592H79.76h-0.266c-0.749-0.024-1.569,0.169-2.172,0.53
			c-0.892,0.509-1.352,1.424-1.352,2.729c0,1.856,0.943,2.918,2.583,2.918c0.482,0,0.916-0.096,1.399-0.24v-0.266v-1.014
			c0-0.436-0.024-0.919-0.024-1.423l-0.023-1.716l-0.024-1.229V206.592z"/>
		<path fill="#00026F" d="M91.658,203.526c3.716,0,5.986,2.341,5.986,6.13c0,3.889-2.366,6.322-6.13,6.322
			c-3.716,0-6.009-2.339-6.009-6.103C85.504,205.965,87.87,203.526,91.658,203.526 M91.586,212.989c1.448,0,2.292-1.185,2.292-3.236
			c0-2.025-0.82-3.231-2.268-3.231c-1.498,0-2.342,1.183-2.342,3.231C89.269,211.805,90.113,212.989,91.586,212.989"/>
		<path fill="#00026F" d="M108.262,207.27c-0.843-0.509-1.591-0.725-2.581-0.725c-2.173,0-3.62,1.183-3.62,3.039
			c0,1.932,1.422,3.161,3.62,3.161c1.014,0,1.738-0.191,2.702-0.7v3.018c-1.207,0.603-2.196,0.846-3.643,0.846
			c-3.957,0-6.444-2.318-6.444-6.01c0-3.789,2.728-6.346,6.734-6.346c1.207,0,2.076,0.193,3.232,0.696V207.27z"/>
		<path fill="#00026F" d="M115.265,203.526c3.713,0,5.983,2.341,5.983,6.13c0,3.889-2.367,6.322-6.13,6.322
			c-3.717,0-6.009-2.339-6.009-6.103C109.109,205.965,111.473,203.526,115.265,203.526 M115.191,212.989
			c1.447,0,2.294-1.185,2.294-3.236c0-2.025-0.822-3.231-2.271-3.231c-1.497,0-2.341,1.183-2.341,3.231
			C112.873,211.805,113.717,212.989,115.191,212.989"/>
		<path fill="#00026F" d="M123.059,204.421c2.195-0.578,4.005-0.845,5.84-0.845c1.907,0,3.281,0.436,4.104,1.281
			c0.77,0.793,1.012,1.664,1.012,3.519v7.289h-3.717v-7.144c0-1.425-0.482-1.954-1.809-1.954c-0.508,0-0.966,0.05-1.713,0.267v8.831
			h-3.717V204.421z"/>
		<path fill="#00026F" d="M135.826,217.693c1.303,0.674,2.605,0.988,3.98,0.988c2.44,0,3.477-0.988,3.477-3.354v-0.071
			c-0.726,0.36-1.448,0.506-2.415,0.506c-3.259,0-5.333-2.147-5.333-5.55c0-4.224,3.064-6.614,8.495-6.614
			c1.593,0,3.066,0.171,4.85,0.531v2.921c-0.989-0.192-1.351-0.266-2.101-0.34v0.386l0.051,1.572l0.023,2.025
			c0.023,0.507,0.023,1.014,0.048,1.521v1.013c0,3.188-0.266,4.683-1.062,5.913c-1.158,1.81-3.16,2.702-6.01,2.702
			c-1.449,0-2.702-0.216-4.005-0.722V217.693z M143.211,206.592h-0.121h-0.267c-0.745-0.024-1.567,0.169-2.171,0.53
			c-0.893,0.509-1.351,1.424-1.351,2.729c0,1.856,0.942,2.918,2.584,2.918c0.478,0,0.915-0.096,1.399-0.24v-0.266v-1.014
			c0-0.436-0.025-0.919-0.025-1.423l-0.024-1.716l-0.023-1.229V206.592z"/>
		<path fill="#00026F" d="M149.921,204.71c1.879-0.749,3.837-1.137,5.647-1.137c1.038,0,1.761,0.123,2.606,0.388v3.161
			c-0.675-0.264-1.376-0.386-2.197-0.386c-0.844,0-1.568,0.122-2.343,0.386v8.543h-3.714V204.71z"/>
		<path fill="#00026F" d="M162.349,210.814c0.122,1.476,1.258,2.271,3.211,2.271c1.47,0,2.824-0.389,3.958-1.136v2.872
			c-1.424,0.746-2.897,1.111-4.488,1.111c-3.96,0-6.275-2.271-6.275-6.131c0-3.787,2.364-6.249,5.959-6.249
			c3.451,0,5.432,2.195,5.432,6.056c0,0.193,0,0.533-0.025,0.941l-0.024,0.265H162.349z M166.742,208.234
			c-0.121-1.353-0.821-2.075-2.027-2.075c-1.253,0-2.123,0.795-2.314,2.075H166.742z"/>
		<path fill="#00026F" d="M171.667,212.144c1.325,0.65,2.365,0.941,3.596,0.941c0.99,0,1.521-0.267,1.521-0.753
			c0-0.31-0.194-0.552-0.604-0.721l-1.497-0.701c-2.292-1.059-3.016-1.93-3.016-3.617c0-2.315,1.882-3.74,4.971-3.74
			c1.182,0,2.172,0.193,3.329,0.675v2.944c-1.109-0.53-2.003-0.772-3.063-0.772c-1.037,0-1.619,0.29-1.619,0.795
			c0,0.172,0.074,0.339,0.193,0.46c0.097,0.096,0.244,0.191,0.411,0.266c0.364,0.169,0.844,0.411,1.474,0.699
			c2.315,1.061,3.04,1.931,3.04,3.546c0,2.486-1.715,3.764-5.02,3.764c-1.399,0-2.534-0.215-3.717-0.722V212.144z"/>
		<path fill="#00026F" d="M181.778,212.144c1.328,0.65,2.366,0.941,3.598,0.941c0.988,0,1.52-0.267,1.52-0.753
			c0-0.31-0.194-0.552-0.604-0.721l-1.498-0.701c-2.291-1.059-3.016-1.93-3.016-3.617c0-2.315,1.885-3.74,4.97-3.74
			c1.184,0,2.174,0.193,3.332,0.675v2.944c-1.109-0.53-2.003-0.772-3.064-0.772c-1.036,0-1.619,0.29-1.619,0.795
			c0,0.172,0.075,0.339,0.194,0.46c0.097,0.096,0.241,0.191,0.414,0.266c0.359,0.169,0.842,0.411,1.472,0.699
			c2.315,1.061,3.038,1.931,3.038,3.546c0,2.486-1.712,3.764-5.021,3.764c-1.399,0-2.53-0.215-3.716-0.722V212.144z"/>
		<rect x="191.859" y="212.463" fill="#00026F" width="2.92" height="3.025"/>
		<path fill="#00026F" d="M199.635,207.395v5.896c0,2.031-0.15,3.005-0.595,3.845c-0.412,0.811-0.958,1.321-2.08,1.884l-2.363-1.123
			c1.122-0.529,1.667-0.99,2.016-1.701c0.362-0.725,0.478-1.568,0.478-3.78v-5.021H199.635z M197.092,203.48h2.543v2.607h-2.543
			V203.48z"/>
		<path fill="#00026F" d="M201.781,207.574c1.239-0.247,2.263-0.361,3.352-0.361c3.038,0,4.659,1.437,4.659,4.146
			c0,2.573-1.67,4.208-4.33,4.208c-0.395,0-0.722-0.031-1.139-0.112v4.16h-2.542V207.574z M204.323,213.421
			c0.347,0.083,0.545,0.101,0.794,0.101c1.339,0,2.096-0.777,2.096-2.163c0-1.374-0.695-2.1-2.014-2.1
			c-0.299,0-0.512,0.016-0.877,0.101V213.421z"/>
		<polygon fill="#E50012" points="192.68,123.404 192.68,117.376 196.438,117.376 196.438,133.858 192.68,133.858 192.68,127.859 
			177.397,127.859 177.397,123.404 		"/>
		<path fill="#E50012" d="M190.812,139.087c0,4.109-2.586,6.618-6.774,6.618c-4.294,0-6.987-2.616-6.987-6.775
			c0-4.107,2.586-6.643,6.749-6.643C188.117,132.287,190.812,134.9,190.812,139.087 M180.355,139.008c0,1.6,1.309,2.535,3.574,2.535
			c2.244,0,3.574-0.907,3.574-2.509c0-1.654-1.306-2.586-3.574-2.586C181.664,136.448,180.355,137.38,180.355,139.008"/>
		<path fill="#E50012" d="M197.398,148.585v4.108h-12.507l0.373,0.318c1.653,1.496,3.44,2.936,5.2,4.188v4.562l-0.586-0.426
			c-1.787-1.337-3.601-2.829-5.281-4.35l-0.426,0.292l-1.546,1.067c-1.763,1.228-3.841,2.826-5.229,4.027v-4.932
			c1.465-1.176,3.413-2.562,6.293-4.403l0.561-0.346h-6.854v-4.108H197.398z"/>
		<path fill="#E50012" d="M190.465,166.857c-2.028,0.455-4.827,1.279-7.148,2.135l-0.426,0.133c-0.053,0.027-0.188,0.078-0.4,0.132
			l-2.639,0.216l2.665,0.24l0.375,0.16l1.574,0.613c1.333,0.508,4.265,1.44,5.761,1.838l0.239,0.055v4.269l-0.667-0.216
			c-3.759-1.198-7.548-2.668-10.857-4.211l-2.452-1.12c-1.359-0.642-3.095-1.414-4.268-1.897c-0.585-0.238-0.932-0.371-1.494-0.611
			v-3.999c0.695,0.265,1.015,0.425,1.867,0.77c1.494,0.615,2.107,0.912,3.814,1.655l0.642,0.322l0.694-0.322
			c2.426-1.093,5.092-2.133,7.734-3.012c1.624-0.533,2.958-0.935,4.985-1.468V166.857z"/>
		<path fill="#E50012" d="M190.812,184.703c0,4.107-2.586,6.613-6.774,6.613c-4.294,0-6.987-2.612-6.987-6.772
			c0-4.109,2.586-6.644,6.749-6.644C188.117,177.9,190.812,180.516,190.812,184.703 M180.355,184.624
			c0,1.602,1.309,2.535,3.574,2.535c2.244,0,3.574-0.908,3.574-2.51c0-1.653-1.306-2.584-3.574-2.584
			C181.664,182.065,180.355,182.996,180.355,184.624"/>
		<g>
			<path fill="#FFFFFF" d="M177.059,29.372l0.552,0.741c3.03,4.22,4.806,6.44,6.38,7.958c2.324,2.295,4.174,3.257,6.303,3.257
				c2.874,0,4.647-1.813,4.647-4.739c0-2.22-0.828-4.182-2.562-6.07h5.712c1.734,2.37,2.521,4.626,2.521,7.367
				c0,5.702-3.741,9.403-9.533,9.403c-5.159,0-9.333-2.888-13.588-9.44l0.081,10.144h-5.634V29.372H177.059z"/>
			<path fill="#FFFFFF" d="M196.83,54.321c2.365,1.665,3.665,4.22,3.665,7.108c0,2.924-1.3,5.442-3.665,7.071
				c-2.56,1.777-5.946,2.591-10.594,2.591c-4.884,0-8.507-0.888-11.187-2.812c-2.322-1.667-3.662-4.221-3.662-7.109
				c0-2.924,1.339-5.442,3.662-7.07c2.562-1.777,5.948-2.592,10.598-2.592C190.53,51.506,194.153,52.432,196.83,54.321z
				 M176.823,61.317c0,2.333,3.229,3.627,9.137,3.627c5.869,0,9.098-1.294,9.098-3.627c0-2.369-3.229-3.665-9.098-3.665
				C180.052,57.652,176.823,58.948,176.823,61.317z"/>
			<path fill="#FFFFFF" d="M192.815,81.862l-2.799-8.109h5.554l4.924,14.034h-28.557v-5.924H192.815z"/>
			<path fill="#FFFFFF" d="M173.239,98.221c2.836,4.184,5.12,6.589,8.825,9.293c-0.161-0.888-0.199-1.482-0.199-2.148
				c0-5.146,3.703-8.663,9.06-8.663c5.906,0,9.807,3.887,9.807,9.772c0,5.814-3.82,9.332-10.201,9.332
				c-7.051,0-13.275-3.889-19.537-12.182L173.239,98.221z M190.845,110.031c2.913,0,4.726-1.407,4.726-3.702
				c0-2.296-1.693-3.666-4.41-3.666c-2.917,0-4.413,1.408-4.413,4.222c0,0.592,0.082,1.223,0.276,1.739
				c0.039,0.186,0.077,0.297,0.158,0.518c0.039,0.186,0.08,0.26,0.08,0.26C188.403,109.845,189.584,110.031,190.845,110.031z"/>
		</g>
	</g>
</g>
</svg>
