<?xml version="1.0" standalone="no"?>
<!DOCTYPE svg PUBLIC "-//W3C//DTD SVG 20010904//EN"
 "http://www.w3.org/TR/2001/REC-SVG-20010904/DTD/svg10.dtd">
<svg version="1.0" xmlns="http://www.w3.org/2000/svg"
 width="240.000000pt" height="240.000000pt" viewBox="0 0 240.000000 240.000000"
 preserveAspectRatio="xMidYMid meet">
<metadata>
Created by potrace 1.11, written by Peter Selinger 2001-2013
</metadata>
<g transform="translate(0.000000,240.000000) scale(0.100000,-0.100000)"
fill="#000000" stroke="none">
<path d="M185 2381 c-40 -18 -67 -44 -95 -91 -13 -22 -15 -161 -17 -1066 -1
-715 2 -1055 9 -1084 14 -55 71 -114 123 -129 28 -8 333 -11 1010 -11 965 0
971 0 1009 21 49 26 60 37 86 87 21 40 21 42 21 1091 0 894 -2 1055 -15 1084
-19 47 -71 95 -115 107 -23 6 -388 10 -1006 10 -922 0 -972 -1 -1010 -19z"/>
</g>
</svg>
