<?xml version="1.0" standalone="no"?>
<!DOCTYPE svg PUBLIC "-//W3C//DTD SVG 20010904//EN"
 "http://www.w3.org/TR/2001/REC-SVG-20010904/DTD/svg10.dtd">
<svg version="1.0" xmlns="http://www.w3.org/2000/svg"
 width="307.000000pt" height="307.000000pt" viewBox="0 0 307.000000 307.000000"
 preserveAspectRatio="xMidYMid meet">
<metadata>
Created by potrace 1.14, written by Peter Selinger 2001-2017
</metadata>
<g transform="translate(0.000000,307.000000) scale(0.100000,-0.100000)"
fill="#000000" stroke="none">
<path d="M1340 2950 c-324 -45 -599 -181 -824 -405 -202 -202 -336 -454 -392
-741 -27 -135 -25 -406 4 -541 61 -282 190 -522 387 -718 287 -286 650 -427
1060 -412 659 25 1190 479 1332 1138 14 65 18 127 18 279 -1 175 -3 206 -27
307 -102 429 -380 778 -771 963 -195 92 -348 129 -572 135 -82 2 -179 0 -215
-5z m418 -36 c280 -49 529 -180 738 -388 207 -208 333 -443 391 -733 26 -132
24 -385 -5 -520 -63 -294 -193 -526 -409 -733 -201 -193 -430 -311 -709 -366
-132 -26 -387 -24 -516 4 -289 63 -509 182 -713 387 -270 269 -408 604 -407
985 0 373 141 709 407 975 325 325 772 468 1223 389z"/>
<path d="M1281 2854 c-262 -44 -515 -177 -711 -374 -190 -190 -309 -409 -366
-670 -26 -120 -27 -420 -1 -540 27 -126 65 -233 122 -344 l51 -99 69 -24 c52
-17 81 -22 116 -17 42 6 48 4 59 -16 11 -20 13 -21 28 -6 15 14 18 14 38 -5
18 -17 51 -26 150 -40 143 -21 425 -49 492 -49 58 0 82 -14 82 -48 0 -29 30
-177 50 -251 8 -32 14 -41 23 -32 15 15 80 14 95 -1 17 -17 15 -74 -4 -92 -8
-9 -27 -16 -41 -16 -15 0 -23 -5 -20 -12 5 -15 101 -13 215 4 54 8 72 14 68
24 -5 13 0 15 48 18 11 1 21 6 23 13 5 15 -14 26 -22 13 -9 -15 -41 -12 -59 6
-9 8 -16 31 -16 50 0 27 5 37 23 43 12 5 27 6 33 4 7 -2 15 0 19 6 14 24 32 8
48 -42 9 -30 17 -63 17 -75 l0 -21 65 24 c321 121 594 364 742 660 50 99 107
274 124 380 18 112 16 339 -5 455 -57 319 -238 619 -490 814 -156 120 -409
229 -606 261 -117 18 -344 18 -459 -1z m339 -49 c0 -32 -2 -35 -30 -35 l-30 0
0 -80 0 -80 -40 0 -40 0 0 80 0 80 -35 0 c-32 0 -35 2 -35 30 l0 29 83 4 c45
1 92 4 105 5 19 2 22 -3 22 -33z m221 -18 c89 -60 40 -213 -66 -209 -54 2 -88
23 -109 65 -16 34 -17 44 -7 79 7 22 23 51 36 64 33 32 99 33 146 1z m-596
-13 c9 -9 15 -28 13 -43 -2 -17 4 -32 20 -44 14 -12 22 -29 22 -48 0 -72 -122
-112 -169 -55 -11 13 -9 17 14 28 21 9 31 9 47 -1 24 -15 42 -3 36 25 -2 12
-12 19 -26 18 -28 -1 -41 35 -18 48 23 13 20 38 -4 38 -11 0 -20 -6 -20 -14 0
-8 -7 -17 -16 -20 -31 -12 -44 -6 -44 19 0 50 107 86 145 49z m778 -34 c5 -4
4 -17 -2 -28 -20 -37 -12 -43 30 -21 36 18 45 19 73 8 52 -20 52 -27 2 -50
l-48 -21 7 -79 7 -79 -28 10 c-45 18 -54 30 -54 75 0 38 -2 43 -20 38 -12 -3
-28 -19 -36 -34 -14 -29 -15 -29 -45 -13 -17 8 -28 21 -26 27 74 179 80 188
106 182 14 -4 30 -10 34 -15z m-979 -42 c21 -30 20 -61 -4 -109 l-21 -40 40
21 c40 20 40 20 51 1 5 -11 10 -22 10 -25 0 -6 -154 -86 -165 -86 -15 0 -2 80
22 132 19 42 23 62 15 70 -15 15 -42 2 -42 -20 0 -15 -36 -42 -56 -42 -3 0 -4
17 -2 37 2 30 10 42 37 60 44 30 95 30 115 1z m1204 -74 c17 -12 22 -25 22
-60 l0 -45 30 16 c37 19 50 19 78 -3 l24 -18 -71 -28 c-54 -21 -75 -35 -91
-62 -24 -38 -39 -42 -63 -16 -15 17 -15 21 8 54 21 31 25 49 25 107 0 39 3 71
8 71 4 0 18 -7 30 -16z m-1377 -64 c66 -70 64 -141 -7 -175 -37 -17 -39 -17
-73 1 -21 12 -46 39 -64 72 -26 47 -28 55 -17 83 15 34 52 58 94 59 21 0 39
-11 67 -40z m-194 -116 c23 -23 25 -31 20 -82 l-6 -57 28 34 c19 24 33 32 45
28 37 -14 29 -38 -30 -98 -32 -32 -64 -59 -70 -59 -21 0 -35 61 -28 123 5 45
3 61 -7 67 -18 12 -38 -6 -32 -28 2 -10 -5 -26 -17 -37 -22 -19 -22 -19 -36 0
-23 31 -16 55 25 96 45 46 72 49 108 13z m1821 -24 c41 -25 67 -78 58 -116 -4
-15 -22 -42 -41 -61 -27 -27 -41 -33 -75 -33 -34 0 -48 6 -75 33 -19 19 -37
45 -40 60 -14 55 54 136 115 137 14 0 40 -9 58 -20z m-908 -805 l0 -665 -175
0 -175 0 0 65 0 64 -47 -47 c-73 -73 -128 -95 -248 -100 -118 -5 -184 15 -255
75 -209 179 -228 630 -34 818 73 71 141 99 255 103 112 5 170 -10 249 -63 l50
-34 0 225 0 224 190 0 190 0 0 -665z m610 535 l0 -130 -185 0 -185 0 0 33 c0
17 -3 76 -7 130 l-6 97 191 0 192 0 0 -130z m0 -732 c0 -640 -7 -698 -86 -782
-53 -56 -105 -71 -244 -71 -127 0 -225 9 -248 24 -10 6 -8 34 14 139 l27 131
47 -6 c63 -7 99 22 111 93 4 27 8 255 8 507 l1 457 185 0 185 0 0 -492z m357
-550 c28 -26 29 -42 3 -68 -19 -19 -19 -19 1 -33 17 -13 18 -47 1 -47 -9 0
-131 85 -132 92 0 4 7 13 15 22 8 8 15 18 15 23 0 36 63 43 97 11z m-177 -83
c-9 -11 -16 -13 -23 -6 -7 7 -6 15 3 26 9 11 16 13 23 6 7 -7 6 -15 -3 -26z
m93 -48 c48 -41 58 -66 32 -87 -16 -14 -39 -4 -32 14 3 7 -17 32 -44 55 -40
34 -48 46 -38 57 13 16 18 14 82 -39z m-160 -72 c1 -6 -8 -14 -20 -20 -13 -5
-23 -14 -23 -18 0 -5 8 -6 18 -1 9 4 31 8 47 8 25 1 30 -3 33 -25 3 -30 -36
-69 -70 -69 -27 0 -18 22 15 38 15 7 27 17 27 22 0 5 -15 2 -34 -7 -64 -30
-91 14 -39 63 26 24 43 28 46 9z m115 3 c8 -8 8 -17 1 -30 -10 -19 -12 -19
-30 -2 -14 13 -16 20 -8 31 14 16 22 16 37 1z m-213 -99 c-4 -5 -18 -15 -32
-20 -14 -5 -23 -12 -20 -16 4 -3 20 0 36 7 39 16 61 7 61 -24 0 -27 -42 -66
-71 -66 -34 0 -17 31 19 36 18 3 27 12 19 20 -4 4 -20 1 -37 -6 -24 -10 -33
-10 -45 0 -22 18 -18 46 7 64 25 18 73 22 63 5z m-94 -85 c14 -17 12 -20 -45
-58 -12 -8 -16 -15 -9 -19 6 -4 21 2 33 13 22 20 40 26 40 14 0 -18 -23 -43
-50 -54 -62 -26 -115 47 -69 96 26 28 79 33 100 8z m-141 -43 c0 -11 -5 -21
-11 -23 -9 -3 -9 -13 0 -41 25 -74 -16 -79 -47 -5 -17 40 -19 54 -9 60 6 4 17
6 24 4 6 -3 14 2 17 10 8 21 26 17 26 -5z m-252 -73 c5 -7 13 -34 17 -60 7
-44 5 -48 -13 -48 -15 0 -22 9 -29 37 -13 57 -36 56 -32 -1 2 -25 1 -46 -3
-46 -3 0 -13 -3 -21 -6 -20 -7 -35 105 -16 117 7 4 17 5 21 3 4 -3 16 0 25 5
24 14 39 13 51 -1z"/>
<path d="M1741 2731 c-18 -32 -13 -79 8 -91 40 -21 67 13 59 76 -2 23 -9 30
-30 32 -18 2 -30 -3 -37 -17z"/>
<path d="M770 2525 c0 -13 14 -40 31 -60 58 -66 82 -30 29 43 -34 48 -60 55
-60 17z"/>
<path d="M2407 2354 c-32 -32 -34 -54 -6 -79 19 -18 22 -18 47 -3 38 23 60 63
46 85 -18 29 -57 27 -87 -3z"/>
<path d="M963 1615 c-39 -32 -63 -102 -63 -187 0 -147 52 -218 158 -218 49 0
58 3 92 38 44 43 60 92 60 177 0 82 -15 130 -54 173 -31 33 -39 36 -97 39 -57
4 -68 1 -96 -22z"/>
<path d="M2485 841 c-6 -10 21 -41 35 -41 16 0 22 21 10 35 -14 17 -36 20 -45
6z"/>
<path d="M2045 459 c-4 -6 -5 -12 -2 -15 7 -7 37 7 37 17 0 13 -27 11 -35 -2z"/>
<path d="M1813 354 c-3 -8 1 -23 10 -32 15 -14 17 -14 23 1 8 21 -1 47 -16 47
-6 0 -13 -7 -17 -16z"/>
<path d="M1512 293 c2 -17 9 -28 18 -28 9 0 16 11 18 28 3 22 -1 27 -18 27
-17 0 -21 -5 -18 -27z"/>
</g>
</svg>
