<svg xmlns="http://www.w3.org/2000/svg" viewBox="0 0 4167 890.22431"><defs><style>.cls-1{fill:#003e70;}</style></defs><g id="レイヤー_2" data-name="レイヤー 2"><g id="レイヤー_2-2" data-name="レイヤー 2"><polygon class="cls-1" points="845.484 0 690.854 576.96 500.59 0.001 238.588 0 0 890.224 216.442 890.224 217.424 890.224 217.642 890.224 383.207 271.894 586.332 890.224 824.065 890.224 824.321 890.224 1062.908 0 845.484 0"/><polygon class="cls-1" points="3949.576 0.001 3710.988 890.224 3928.412 890.224 4167 0.001 3949.576 0.001"/><polygon class="cls-1" points="1193.165 0.001 954.576 890.224 1172 890.224 1410.588 0.001 1193.165 0.001"/><polygon class="cls-1" points="3627.223 524.739 3671.59 359.192 3301.162 359.192 3348.939 180.923 3763.878 180.923 3812.366 0.001 3180.004 0 2946.732 870.389 2775.157 411.929 2707.777 411.929 2707.609 411.929 3114.775 0.001 2858.117 0.001 2478.11 377.959 2579.407 0 2361.983 0 2127.411 875.242 1954.019 411.929 1886.639 411.929 1886.471 411.929 2293.638 0.001 2036.979 0.001 1656.973 377.959 1758.269 0 1540.845 0 1302.257 890.224 1306.691 890.224 1518.152 890.224 1519.681 890.224 1647.869 411.929 1724.766 411.929 1881.272 890.224 2339.29 890.224 2340.819 890.224 2469.006 411.929 2545.905 411.929 2702.41 890.224 3579.909 890.224 3628.331 709.555 3207.261 709.555 3256.793 524.739 3627.223 524.739"/></g></g></svg>